<svg width="270" height="71" viewBox="0 0 270 71" fill="none" xmlns="http://www.w3.org/2000/svg">
<path d="M256.306 0H13.6943C6.13114 0 0 5.56249 0 12.4242V58.5758C0 65.4375 6.13114 71 13.6943 71H256.306C263.869 71 270 65.4375 270 58.5758V12.4242C270 5.56249 263.869 0 256.306 0Z" fill="#E6DFFF"/>
<path fill-rule="evenodd" clip-rule="evenodd" d="M94.1952 52.6354H97.7719L89.9382 32.1102H86.3161L78.4824 52.6354H81.9401L83.9411 47.1887H92.2112L94.1952 52.6354V52.6354ZM87.9543 35.8374H88.2094L91.3496 44.5135H84.7913L87.9486 35.8374H87.9543ZM107.266 36.8894C105.039 36.8894 103.117 37.9414 102.125 39.706H101.887V37.1439H98.7752V57.6578H102.006V50.2882H102.261C103.117 51.9227 104.965 52.8955 107.295 52.8955C111.433 52.8955 114.063 49.8074 114.063 44.8868C114.063 39.9662 111.433 36.895 107.266 36.895V36.8894ZM106.348 50.1468C103.644 50.1468 101.944 48.1276 101.944 44.8981C101.944 41.6686 103.644 39.6325 106.365 39.6325C109.086 39.6325 110.741 41.6121 110.741 44.8811C110.741 48.1502 109.103 50.1468 106.348 50.1468ZM124.034 36.8894C121.806 36.8894 119.884 37.9414 118.892 39.706H118.654V37.1439H115.542V57.6578H118.773V50.2882H119.028C119.884 51.9227 121.738 52.8955 124.062 52.8955C128.2 52.8955 130.83 49.8074 130.83 44.8868C130.83 39.9662 128.2 36.895 124.034 36.895V36.8894ZM123.115 50.1468C120.406 50.1468 118.711 48.1276 118.711 44.8981C118.711 41.6686 120.411 39.6325 123.132 39.6325C125.853 39.6325 127.508 41.6121 127.508 44.8811C127.508 48.1502 125.87 50.1468 123.115 50.1468ZM137.672 47.1152C137.915 50.7859 141.146 53.1331 145.959 53.1331C151.1 53.1331 154.32 50.6728 154.32 46.7419C154.32 43.6538 152.483 41.9514 148.033 40.9673L145.641 40.413C142.819 39.7852 141.673 38.9481 141.673 37.4833C141.673 35.6338 143.448 34.4234 146.112 34.4234C148.776 34.4234 150.38 35.6055 150.698 37.4946H153.974C153.781 34.0388 150.562 31.6068 146.152 31.6068C141.413 31.6068 138.255 34.0388 138.255 37.6925C138.255 40.7071 140.047 42.5 143.969 43.3654L146.769 44.0045C149.643 44.6436 150.902 45.5825 150.902 47.1492C150.902 48.9703 148.918 50.2938 146.208 50.2938C143.306 50.2938 141.288 49.0552 141.005 47.1096H137.666L137.672 47.1152ZM157.103 33.3884V37.2174H154.41V39.7909H157.103V48.5405C157.103 51.5268 158.531 52.7259 162.125 52.7259C162.703 52.7259 163.281 52.6693 163.854 52.5675V50.0223C163.4 50.0676 163.145 50.0959 162.652 50.0959C161.042 50.0959 160.339 49.3832 160.339 47.76V39.7909H164.007V37.2174H160.339V33.3941H157.108L157.103 33.3884ZM172.022 50.2146C169.21 50.2146 167.629 48.2634 167.629 44.8811C167.629 41.4989 169.21 39.559 172.022 39.559C174.834 39.559 176.415 41.5216 176.415 44.8811C176.415 48.2407 174.822 50.2146 172.022 50.2146ZM172.022 52.9351C176.806 52.9351 179.737 49.9036 179.737 44.8811C179.737 39.8587 176.789 36.8441 172.022 36.8441C167.255 36.8441 164.29 39.887 164.29 44.8811C164.29 49.8753 167.221 52.9351 172.022 52.9351ZM181.21 52.6354H184.441V43.4898C184.441 41.3123 186.17 39.8474 188.608 39.8474C189.152 39.8474 190.144 39.9492 190.399 40.0341V37.0195C190.053 36.9346 189.435 36.895 188.97 36.895C186.833 36.895 185.031 38.0036 184.566 39.525H184.328V37.1496H181.216V52.641L181.21 52.6354ZM197.677 39.4515C200.069 39.4515 201.634 41.0295 201.707 43.4615H193.437C193.619 41.0465 195.285 39.4515 197.677 39.4515V39.4515ZM201.69 48.4557C201.089 49.666 199.752 50.3334 197.796 50.3334C195.211 50.3334 193.539 48.614 193.437 45.8992V45.7295H205.001V44.6606C205.001 39.7965 202.251 36.8498 197.694 36.8498C193.137 36.8498 190.149 39.9945 190.149 44.9434C190.149 49.8923 193.023 52.9351 197.711 52.9351C201.452 52.9351 204.071 51.227 204.808 48.4557H201.696H201.69ZM81.532 15.2557V25.3344H85.2335C88.2887 25.3344 90.0516 23.485 90.0516 20.2611C90.0516 17.0373 88.2717 15.25 85.2278 15.25H81.532V15.2557ZM83.1248 16.6809H85.0521C87.1777 16.6809 88.4304 18.0101 88.4304 20.2837C88.4304 22.5574 87.1947 23.9091 85.0521 23.9091H83.1248V16.6753V16.6809ZM95.6463 24.1524C94.3199 24.1524 93.5716 23.1965 93.5716 21.5337C93.5716 19.8708 94.3142 18.9207 95.6463 18.9207C96.9783 18.9207 97.7209 19.8878 97.7209 21.5337C97.7209 23.1795 96.967 24.1524 95.6463 24.1524ZM95.6463 25.4871C97.9023 25.4871 99.291 23.9996 99.291 21.5337C99.291 19.0677 97.8966 17.5859 95.6463 17.5859C93.3959 17.5859 91.9958 19.079 91.9958 21.5337C91.9958 23.9883 93.3789 25.4871 95.6463 25.4871ZM111.251 17.7329H109.727L108.349 23.5415H108.23L106.637 17.7329H105.175L103.588 23.5415H103.474L102.091 17.7329H100.544L102.675 25.3401H104.245L105.832 19.7351H105.957L107.556 25.3401H109.137L111.263 17.7329H111.251ZM113.19 25.3401H114.715V20.8889C114.715 19.7012 115.469 18.9603 116.693 18.9603C117.827 18.9603 118.382 19.5654 118.382 20.7928V25.3401H119.907V20.4138C119.907 18.6039 118.932 17.5859 117.209 17.5859C116.047 17.5859 115.145 18.0949 114.766 18.9433H114.652V17.7329H113.184V25.3401H113.19ZM122.492 25.3401H124.017V14.7579H122.492V25.3344V25.3401ZM129.934 24.1524C128.608 24.1524 127.86 23.1965 127.86 21.5337C127.86 19.8708 128.602 18.9207 129.934 18.9207C131.266 18.9207 132.009 19.8878 132.009 21.5337C132.009 23.1795 131.255 24.1524 129.934 24.1524ZM129.934 25.4871C132.19 25.4871 133.573 23.9996 133.573 21.5337C133.573 19.0677 132.185 17.5859 129.934 17.5859C127.684 17.5859 126.284 19.079 126.284 21.5337C126.284 23.9883 127.667 25.4871 129.934 25.4871ZM138.295 24.1976C137.462 24.1976 136.861 23.8017 136.861 23.1173C136.861 22.433 137.343 22.0936 138.409 22.0201L140.296 21.9013V22.5348C140.296 23.4793 139.446 24.1976 138.295 24.1976ZM137.904 25.4589C138.919 25.4589 139.763 25.029 140.228 24.2655H140.347V25.3344H141.815V20.1367C141.815 18.5304 140.721 17.5802 138.783 17.5802C137.031 17.5802 135.778 18.4173 135.625 19.7238H137.105C137.275 19.1865 137.864 18.8811 138.715 18.8811C139.758 18.8811 140.296 19.3335 140.296 20.1367V20.7928L138.204 20.9115C136.362 21.0246 135.331 21.8108 135.331 23.1795C135.331 24.5483 136.419 25.4589 137.91 25.4589H137.904ZM147.177 25.4589C148.243 25.4589 149.144 24.9668 149.604 24.1297H149.723V25.3288H151.185V14.7579H149.66V18.9376H149.547C149.127 18.1006 148.232 17.6028 147.177 17.6028C145.228 17.6028 143.969 19.1243 143.969 21.528C143.969 23.9318 145.211 25.4589 147.177 25.4589V25.4589ZM147.608 18.9489C148.884 18.9489 149.689 19.95 149.689 21.5337C149.689 23.1173 148.895 24.1128 147.608 24.1128C146.322 24.1128 145.545 23.1399 145.545 21.528C145.545 19.9161 146.327 18.9489 147.608 18.9489V18.9489ZM161.439 24.1467C160.113 24.1467 159.364 23.1909 159.364 21.528C159.364 19.8652 160.107 18.915 161.439 18.915C162.771 18.915 163.514 19.8822 163.514 21.528C163.514 23.1739 162.76 24.1467 161.439 24.1467ZM161.439 25.4815C163.695 25.4815 165.084 23.994 165.084 21.528C165.084 19.0621 163.689 17.5802 161.439 17.5802C159.189 17.5802 157.789 19.0734 157.789 21.528C157.789 23.9827 159.172 25.4815 161.439 25.4815ZM167.278 25.3344H168.802V20.8833C168.802 19.6955 169.556 18.9546 170.781 18.9546C171.914 18.9546 172.47 19.5598 172.47 20.7871V25.3344H173.995V20.4082C173.995 18.5983 173.025 17.5802 171.296 17.5802C170.134 17.5802 169.233 18.0892 168.853 18.9376H168.74V17.7273H167.272V25.3344H167.278ZM181.386 15.8778V17.7556H180.116V19.0168H181.386V23.3153C181.386 24.7858 182.061 25.3684 183.756 25.3684C184.056 25.3684 184.334 25.3344 184.572 25.2892V24.0392C184.356 24.0619 184.237 24.0732 184.005 24.0732C183.245 24.0732 182.911 23.7225 182.911 22.925V19.0112H184.645V17.7499H182.911V15.8721H181.386V15.8778ZM186.816 25.3288H188.341V20.8833C188.341 19.7295 189.118 18.9546 190.365 18.9546C191.516 18.9546 192.088 19.5711 192.088 20.7871V25.3288H193.613V20.4195C193.613 18.6096 192.615 17.5859 190.881 17.5859C189.719 17.5859 188.823 18.0949 188.443 18.9489H188.324V14.7579H186.811V25.3344L186.816 25.3288ZM199.304 18.8528C200.432 18.8528 201.169 19.6276 201.208 20.821H197.303C197.388 19.6333 198.176 18.8528 199.304 18.8528ZM201.197 23.2757C200.914 23.8696 200.285 24.1976 199.361 24.1976C198.142 24.1976 197.348 23.3549 197.303 22.0201V21.9352H202.762V21.4092C202.762 19.0168 201.464 17.5746 199.31 17.5746C197.156 17.5746 195.75 19.1186 195.75 21.5506C195.75 23.9827 197.105 25.4758 199.321 25.4758C201.089 25.4758 202.325 24.6388 202.671 23.2757H201.203H201.197Z" fill="#0A0A1C"/>
<path fill-rule="evenodd" clip-rule="evenodd" d="M60.6059 36.0227C60.5603 30.9699 64.8591 28.5148 65.0527 28.4009C62.6215 24.9488 58.8465 24.476 57.5198 24.4362C54.3484 24.1115 51.2738 26.2818 49.6625 26.2818C48.0511 26.2818 45.5288 24.4703 42.8527 24.5216C39.4023 24.5729 36.1796 26.5153 34.4089 29.5288C30.7592 35.6809 33.4808 44.7154 36.9825 49.6884C38.7304 52.1265 40.7745 54.8436 43.4506 54.7468C46.0697 54.6443 47.049 53.1233 50.2034 53.1233C53.3577 53.1233 54.2516 54.7468 56.9846 54.6841C59.7974 54.6443 61.5681 52.2404 63.2535 49.7795C65.2747 46.994 66.089 44.2426 66.1231 44.1002C66.0605 44.0774 60.6685 42.078 60.6116 36.0227M55.453 21.1664C56.8651 19.4518 57.8273 17.1219 57.5597 14.7579C55.5213 14.8434 52.9705 16.1308 51.5072 17.8055C50.2091 19.2809 49.0475 21.7019 49.3493 23.9804C51.6382 24.1513 53.9897 22.8582 55.4587 21.1721" fill="#0A0A1C"/>
</svg>
