<svg width="220" height="31" viewBox="0 0 220 31" fill="none" xmlns="http://www.w3.org/2000/svg">
<path d="M21.3839 22.1103C21.3839 26.7755 17.5043 29.8285 11.7264 29.8285H1.49333C1.31729 29.8479 1.13916 29.8324 0.969151 29.7828C0.799138 29.7332 0.640585 29.6505 0.502578 29.5395C0.364571 29.4285 0.249825 29.2914 0.164915 29.136C0.0800058 28.9806 0.0266029 28.8099 0.0077674 28.6338C-0.00222776 28.5375 -0.00222776 28.4403 0.0077674 28.3439V2.42125C-0.03054 2.06573 0.0738826 1.70954 0.298084 1.43098C0.522286 1.15241 0.847919 0.974265 1.20341 0.935692C1.29971 0.924268 1.39703 0.924268 1.49333 0.935692H10.408C15.9389 0.935692 20.0241 3.74112 20.0241 8.4063C20.0241 11.3791 18.3332 14.06 14.5762 15.0098C19.1143 15.5068 21.3839 18.5622 21.3839 22.1104M4.38017 4.52809V13.6484H8.75543C13.6663 13.6484 15.5246 11.2116 15.5246 8.73753C15.5246 5.97219 13.1306 4.52809 10.3652 4.52809H4.38017ZM16.9287 21.9419C16.9287 19.3837 14.7804 16.9482 9.66526 16.9482H4.38167V26.2346H11.685C14.7403 26.2389 16.9286 24.5463 16.9286 21.9423" fill="#E6DFFF"/>
<path d="M26.0508 20.8306V10.6389C26.0317 10.4629 26.0475 10.2848 26.0973 10.1149C26.147 9.94491 26.2298 9.78642 26.3408 9.64847C26.4518 9.51051 26.5889 9.39578 26.7443 9.31083C26.8997 9.22588 27.0703 9.17238 27.2463 9.15339C27.3431 9.14196 27.441 9.14196 27.5378 9.15339H28.7747C28.9547 9.1332 29.1369 9.14867 29.3109 9.19891C29.4849 9.24914 29.6473 9.33316 29.7888 9.44616C29.9304 9.55917 30.0483 9.69894 30.1358 9.85751C30.2233 10.0161 30.2787 10.1903 30.2989 10.3703C30.3088 10.4595 30.3103 10.5494 30.3031 10.6388V20.7905C30.3031 24.9999 32.2014 26.5669 34.3883 26.5669C36.5352 26.5669 40.8276 25.0828 40.8276 18.8487V10.6361C40.789 10.2807 40.8931 9.9246 41.117 9.64601C41.341 9.36741 41.6664 9.18919 42.0217 9.15052C42.1185 9.13909 42.2164 9.13909 42.3132 9.15052H43.5516C43.7316 9.13031 43.9138 9.14575 44.0879 9.19598C44.2619 9.24621 44.4243 9.33024 44.5659 9.44326C44.7074 9.55628 44.8253 9.69609 44.9128 9.85469C45.0003 10.0133 45.0557 10.1876 45.0758 10.3676C45.0853 10.4568 45.0863 10.5467 45.0786 10.6361V28.3425C45.0939 28.5229 45.0734 28.7045 45.0184 28.8769C44.9634 29.0494 44.8749 29.2093 44.7581 29.3475C44.6412 29.4858 44.4982 29.5996 44.3373 29.6826C44.1764 29.7655 44.0008 29.8159 43.8204 29.8309C43.731 29.8393 43.6411 29.8383 43.5519 29.8281H42.3134C41.9581 29.8665 41.6021 29.7623 41.3236 29.5384C41.045 29.3145 40.8667 28.9892 40.8279 28.6339C40.8179 28.537 40.8179 28.4394 40.8279 28.3425V25.7843C39.9194 28.674 37.2783 30.2823 33.9344 30.2823C29.3525 30.2823 26.051 27.3095 26.051 20.8306" fill="#E6DFFF"/>
<path d="M75.0711 26.3912C74.1357 24.9094 73.5998 23.2107 73.5156 21.4604V3.24395H55.0492V14.4098C55.7813 13.3478 56.7702 12.4883 57.9237 11.9113C59.0773 11.3343 60.3582 11.0586 61.647 11.1097C67.1121 11.1097 70.7373 15.3979 70.7373 20.6772C70.7701 21.9032 70.561 23.1235 70.1221 24.2686C69.6832 25.4137 69.023 26.4612 68.1793 27.3512C67.3355 28.2411 66.3248 28.9562 65.2047 29.4555C64.0846 29.9549 62.8771 30.2287 61.6512 30.2614C61.5455 30.2642 61.4398 30.2656 61.3342 30.2642C57.756 30.2642 54.6235 29.2629 52.8295 26.3932C51.894 24.9109 51.3581 23.2117 51.274 21.4609V1.55562C51.2603 1.39538 51.2783 1.23402 51.327 1.08076C51.3758 0.927509 51.4543 0.785376 51.558 0.662504C51.6618 0.539633 51.7888 0.438438 51.9317 0.364716C52.0746 0.290994 52.2307 0.246192 52.391 0.232877C52.4704 0.225977 52.5502 0.226936 52.6295 0.235741H76.2624V0.255787C76.5706 0.289834 76.8526 0.444817 77.0465 0.68668C77.2404 0.928543 77.3304 1.2375 77.2966 1.54566L77.2953 1.55425V14.4042C78.0277 13.3427 79.0167 12.4837 80.1702 11.9071C81.3237 11.3304 82.6044 11.0549 83.893 11.1061C89.3581 11.1061 92.9847 15.3942 92.9847 20.6736C93.0505 23.1492 92.1303 25.5497 90.4263 27.3469C88.7223 29.144 86.3743 30.1907 83.8986 30.2567C83.7914 30.2596 83.6857 30.2596 83.5787 30.2596C79.9962 30.2625 76.8652 29.2598 75.0711 26.3915M77.2181 20.6778C77.2552 24.3074 79.7463 26.9814 83.3388 26.9814C87.0783 26.9814 89.2052 24.1232 89.2052 20.6778C89.2052 17.2687 87.0797 14.3728 83.3388 14.3728C79.7464 14.3728 77.2553 17.0482 77.2181 20.6778ZM54.9749 20.6778C55.012 24.3074 57.5046 26.9814 61.0977 26.9814C64.8372 26.9814 66.9628 24.1232 66.9628 20.6778C66.9628 17.2687 64.8372 14.3728 61.0977 14.3728C57.5053 14.3728 55.0127 17.0482 54.977 20.6778H54.9749Z" fill="url(#paint0_linear_178_60)"/>
<path d="M97.3915 28.3639V1.49426C97.361 1.12984 97.4764 0.768207 97.7124 0.488847C97.9484 0.209486 98.2857 0.0352643 98.6501 0.00447672C98.7395 -0.00267194 98.8294 -0.0012564 98.9186 0.00870403H100.156C100.511 -0.0298155 100.867 0.0743118 101.146 0.298214C101.424 0.522117 101.603 0.847485 101.642 1.20285C101.652 1.29973 101.652 1.39738 101.642 1.49426V28.3639C101.68 28.7194 101.576 29.0755 101.352 29.3541C101.127 29.6327 100.802 29.8108 100.446 29.8494C100.35 29.8594 100.252 29.8594 100.155 29.8494H98.9186C98.7162 29.8714 98.5115 29.8484 98.3191 29.7822C98.1267 29.7159 97.9513 29.6079 97.8054 29.466C97.6595 29.3241 97.5468 29.1517 97.4753 28.9612C97.4037 28.7707 97.3751 28.5667 97.3915 28.3639Z" fill="#E6DFFF"/>
<path d="M106.473 19.5735C106.473 13.5472 111.177 8.71631 117.616 8.71631C122.817 8.71631 127.563 11.8132 128.142 18.4166C128.264 19.4065 127.687 19.9439 126.696 19.9439H110.682C110.558 23.7849 113.737 26.5903 118.234 26.5903C120.24 26.6087 122.202 26.0032 123.848 24.8577C124.155 24.6073 124.548 24.4884 124.942 24.5269C125.336 24.5654 125.699 24.7582 125.952 25.0633L126.24 25.3947C126.902 26.096 126.902 26.9629 125.952 27.7472C123.743 29.4803 120.998 30.3854 118.191 30.3055C110.929 30.3055 106.473 25.476 106.473 19.5735M123.931 16.8082C122.858 13.1343 119.968 12.3502 117.699 12.3502C115.305 12.3502 112.333 13.3001 111.052 16.8082H123.931Z" fill="#E6DFFF"/>
<path d="M133.51 23.2874V12.4729H130.991C130.788 12.4887 130.586 12.4229 130.43 12.2899C130.275 12.1569 130.179 11.9677 130.163 11.7638C130.159 11.7115 130.16 11.6588 130.166 11.6067V9.99759C130.142 9.80329 130.195 9.60724 130.315 9.45247C130.435 9.2977 130.612 9.19684 130.806 9.17204C130.867 9.16347 130.93 9.16347 130.992 9.17204H133.593L134.336 4.42545C134.342 4.2616 134.381 4.10063 134.449 3.95173C134.518 3.80283 134.615 3.66891 134.736 3.55763C134.856 3.44635 134.997 3.35988 135.151 3.30316C135.305 3.24645 135.469 3.22059 135.633 3.22708L135.655 3.22844H136.524C136.676 3.2173 136.829 3.23626 136.973 3.28424C137.118 3.33223 137.252 3.40828 137.367 3.50806C137.483 3.60784 137.577 3.72938 137.645 3.86572C137.713 4.00205 137.754 4.15051 137.765 4.30259C137.77 4.37112 137.768 4.43996 137.761 4.50823V9.1719H143.416C143.61 9.14714 143.806 9.20049 143.961 9.32022C144.115 9.43994 144.216 9.61624 144.241 9.81036C144.25 9.87243 144.25 9.93539 144.241 9.99746V11.6074C144.254 11.7079 144.247 11.81 144.22 11.9078C144.194 12.0056 144.148 12.0972 144.086 12.1774C144.024 12.2575 143.947 12.3246 143.859 12.3748C143.771 12.4251 143.674 12.4575 143.573 12.4702C143.521 12.4773 143.468 12.4787 143.416 12.4744H137.761V23.5356C137.761 25.764 138.834 26.6311 140.155 26.6311C140.445 26.6596 140.739 26.6306 141.018 26.5458C141.297 26.4609 141.557 26.3218 141.782 26.1365C142.008 25.9512 142.194 25.7233 142.332 25.4657C142.469 25.2082 142.554 24.9261 142.582 24.6357C142.59 24.5583 142.593 24.4806 142.592 24.4029C142.598 24.139 142.57 23.8755 142.509 23.6187C142.427 23.0402 142.675 22.6702 143.252 22.6702H145.148C145.257 22.6555 145.368 22.6624 145.475 22.6907C145.582 22.7189 145.682 22.768 145.77 22.835C145.858 22.902 145.931 22.9856 145.987 23.0811C146.042 23.1766 146.078 23.2821 146.093 23.3916L146.096 23.413C146.203 23.9151 146.259 24.4269 146.262 24.9403C146.262 28.0358 144.033 30.3055 140.07 30.3055C136.771 30.3041 133.51 28.6114 133.51 23.2877" fill="#E6DFFF"/>
<path d="M149.649 20.8521V10.6604C149.61 10.3051 149.714 9.94889 149.938 9.67027C150.162 9.39164 150.487 9.2134 150.843 9.17473C150.939 9.16331 151.037 9.16331 151.134 9.17473H152.373C152.737 9.13429 153.102 9.23992 153.387 9.4684C153.673 9.69688 153.857 10.0295 153.897 10.3932C153.907 10.4819 153.908 10.5714 153.9 10.6603V20.812C153.9 25.0214 155.8 26.5884 157.987 26.5884C160.134 26.5884 164.426 25.1043 164.426 18.8701V10.6576C164.387 10.3023 164.491 9.94632 164.715 9.66775C164.939 9.38919 165.264 9.21087 165.619 9.17201C165.716 9.16058 165.814 9.16058 165.911 9.17201H167.149C167.329 9.15179 167.511 9.16723 167.685 9.21744C167.859 9.26764 168.021 9.35163 168.163 9.4646C168.304 9.57756 168.422 9.7173 168.509 9.87581C168.597 10.0343 168.652 10.2085 168.672 10.3884C168.682 10.4775 168.683 10.5675 168.676 10.6569V28.364C168.707 28.7282 168.591 29.0897 168.355 29.3688C168.119 29.6479 167.782 29.8219 167.418 29.8524C167.328 29.8607 167.238 29.8598 167.149 29.8496H165.911C165.556 29.888 165.2 29.7838 164.921 29.5599C164.642 29.336 164.464 29.0107 164.425 28.6554C164.415 28.5585 164.415 28.4609 164.425 28.364V25.8058C163.517 28.6955 160.876 30.3038 157.532 30.3038C152.954 30.3038 149.648 27.331 149.648 20.8521" fill="#E6DFFF"/>
<path d="M174.87 28.3638V10.6574C174.84 10.2929 174.955 9.93119 175.191 9.65174C175.427 9.37229 175.764 9.19801 176.129 9.16723C176.218 9.16008 176.308 9.16149 176.397 9.17146H177.636C177.812 9.15231 177.99 9.16802 178.16 9.21767C178.33 9.26732 178.488 9.34995 178.626 9.46084C178.764 9.57173 178.879 9.7087 178.964 9.86394C179.049 10.0192 179.102 10.1896 179.121 10.3656C179.132 10.4625 179.131 10.5602 179.12 10.657V13.2152C180.028 10.3263 182.671 8.71722 186.013 8.71722C190.593 8.71722 193.94 11.6883 193.94 18.1704V28.3607C193.97 28.7253 193.854 29.0869 193.618 29.3662C193.382 29.6455 193.044 29.8197 192.68 29.8505C192.59 29.8576 192.5 29.8562 192.411 29.8463H191.174C190.998 29.8655 190.82 29.8499 190.65 29.8003C190.48 29.7507 190.322 29.6681 190.184 29.5572C190.046 29.4462 189.931 29.3092 189.846 29.1539C189.761 28.9986 189.708 28.8281 189.689 28.6521C189.677 28.5553 189.677 28.4575 189.689 28.3607V18.2108C189.689 13.9584 187.748 12.4329 185.561 12.4329C183.414 12.4329 179.121 13.877 179.121 20.1511V28.3659C179.16 28.7209 179.057 29.0769 178.833 29.3556C178.61 29.6343 178.285 29.8129 177.93 29.8523C177.831 29.863 177.732 29.863 177.633 29.8523H176.395C176.192 29.8748 175.987 29.852 175.794 29.7857C175.602 29.7194 175.426 29.6112 175.28 29.4688C175.134 29.3264 175.022 29.1534 174.951 28.9624C174.88 28.7713 174.853 28.5669 174.87 28.3638Z" fill="#E6DFFF"/>
<path d="M198.314 19.5735C198.314 13.5472 203.021 8.71631 209.459 8.71631C214.66 8.71631 219.408 11.8132 219.983 18.4166C220.108 19.4065 219.529 19.9439 218.539 19.9439H202.525C202.401 23.7849 205.58 26.5903 210.077 26.5903C212.083 26.6089 214.044 26.0034 215.69 24.8577C215.996 24.6073 216.39 24.4884 216.784 24.5269C217.178 24.5654 217.541 24.7582 217.794 25.0633L218.084 25.3947C218.743 26.096 218.743 26.9629 217.794 27.7472C215.586 29.4805 212.84 30.3856 210.034 30.3055C202.772 30.3055 198.314 25.476 198.314 19.5735ZM215.775 16.8082C214.7 13.1343 211.811 12.3502 209.54 12.3502C207.148 12.3502 204.175 13.3001 202.894 16.8082H215.775Z" fill="#E6DFFF"/>
<defs>
<linearGradient id="paint0_linear_178_60" x1="72.1288" y1="0.228333" x2="72.1288" y2="30.2648" gradientUnits="userSpaceOnUse">
<stop stop-color="#AF94FF"/>
<stop offset="1" stop-color="#274BFF"/>
</linearGradient>
</defs>
</svg>
