<svg width="270" height="71" viewBox="0 0 270 71" fill="none" xmlns="http://www.w3.org/2000/svg">
<path d="M256.306 0H13.6943C6.13114 0 0 5.43655 0 12.1429V58.8571C0 65.5634 6.13114 71 13.6943 71H256.306C263.869 71 270 65.5634 270 58.8571V12.1429C270 5.43655 263.869 0 256.306 0Z" fill="#E6DFFF"/>
<path fill-rule="evenodd" clip-rule="evenodd" d="M188.551 32.9933C188.551 32.9933 193.256 33.8232 193.256 39.431C193.256 45.0388 188.551 45.8687 188.551 45.8687H180.381V32.9933H188.551V32.9933ZM187.52 36.1114H181.963V43.0233H187.52C187.682 43.0233 190.037 42.9048 190.037 39.5673C190.037 36.2299 187.514 36.1114 187.514 36.1114H187.52Z" fill="#0A0A1C"/>
<path fill-rule="evenodd" clip-rule="evenodd" d="M138.912 14.4849C141.745 14.4849 144.045 16.8269 144.045 19.7155C144.045 22.6042 141.751 24.9461 138.912 24.9461C136.072 24.9461 133.784 22.6042 133.784 19.7155C133.784 16.8269 136.078 14.4849 138.912 14.4849ZM138.912 16.0846C136.944 16.0846 135.349 17.713 135.349 19.7155C135.349 21.718 136.944 23.3465 138.912 23.3465C140.88 23.3465 142.474 21.718 142.474 19.7155C142.474 17.713 140.88 16.0846 138.912 16.0846ZM108.266 14.9222V16.0846H104.129V19.1343H107.839V20.2967H104.135V23.4903H108.272V24.6527H102.57V14.9222H108.266ZM116.251 14.9222V16.0846H113.826V24.6527H112.261V16.0846H109.837V14.9222H116.251ZM130.216 14.9222V16.0846H127.792V24.6527H126.227V16.0846H123.802V14.9222H130.216ZM120.809 14.9222H122.362V24.6527H120.809V14.9222ZM146.89 17.057V24.6527H145.325V14.9222H147.181L151.455 22.046V14.9222H153.019V24.6527H151.455L146.89 17.057V17.057ZM96.6895 19.3012H100.981L100.94 20.6132H96.6895V19.3012V19.3012Z" fill="#0A0A1C"/>
<path fill-rule="evenodd" clip-rule="evenodd" d="M96.8175 14.4849C98.2477 14.4849 99.4503 15.0132 100.273 15.929L99.3043 16.9505C98.703 16.2989 97.8449 15.9466 96.8583 15.9466C94.8794 15.9466 93.2799 17.6373 93.2799 19.7214C93.2799 21.8054 94.8794 23.4961 96.8583 23.4961C98.8373 23.4961 100.238 22.2927 100.238 19.7214C100.238 19.5629 100.238 19.4044 100.227 19.2576H101.458V19.3104C101.908 22.7917 99.748 24.8463 97.086 24.9461H96.8175C94.0796 24.9461 91.8613 22.6097 91.8613 19.7214C91.8613 16.8331 94.0796 14.4907 96.8233 14.4907L96.8175 14.4849Z" fill="#0A0A1C"/>
<path fill-rule="evenodd" clip-rule="evenodd" d="M179.822 32.9933H182.685V53.738H179.822V32.9933ZM194.993 32.9933H197.856V53.738H194.993V32.9933ZM205.505 39.9552C210.481 39.9552 211.332 43.5124 211.332 44.7099V53.7321H208.469V52.2529C207.683 52.928 206.421 53.5619 204.427 53.6911C199.862 53.9846 199.862 49.676 199.862 49.3883V49.3472C199.85 48.8718 199.755 45.561 203.267 45.021C205.838 44.6277 207.635 45.2852 208.469 45.7019V45.0914C208.266 44.2814 207.63 42.7963 205.737 42.7963C203.13 42.7963 202.552 44.2579 202.552 44.2579L200.166 42.7963L200.184 42.7552C200.362 42.4147 201.773 39.9434 205.505 39.9434V39.9552ZM202.558 49.4764C202.368 52.6814 207.85 51.1435 208.338 48.8718C208.338 48.1497 208.266 47.8093 208.266 47.8093C208.266 47.8093 202.755 46.2713 202.558 49.4764ZM214.462 40.4013L218.135 49.4294L221.777 40.4717H224.64L216.897 59.5141H214.034L216.706 52.9514L211.605 40.4013H214.468H214.462ZM167.364 39.9552C172.161 39.9552 173.417 45.2499 173.417 45.2499L164.364 49.1183C164.364 49.1183 164.948 51.2609 167.674 51.2785C169.804 51.2902 171.007 49.3237 171.007 49.3237L173.304 50.9321C173.304 50.9321 171.447 54.0374 167.656 54.0374C162.989 54.0374 160.936 49.8168 160.936 47.0755C160.936 44.3342 162.567 39.961 167.364 39.961V39.9552ZM167.09 42.6906C163.394 43.3891 163.858 46.7351 163.858 46.7351L169.971 44.1522C169.971 44.1522 168.834 42.356 167.084 42.6906H167.09ZM156.639 32.9933H159.668V53.6911H156.639V32.9933V32.9933ZM148.044 39.961C150.573 39.8847 151.794 41.6986 151.794 41.6986V40.4072L154.591 40.4306V53.4915C154.591 56.8315 152.674 60.3536 148.151 60.3536C143.627 60.3536 142.175 56.2093 142.175 56.2093L144.746 55.0881C144.746 55.0881 145.532 57.6416 148.288 57.6416C151.425 57.6416 151.794 54.6831 151.794 53.6734V52.2529C151.794 52.2529 150.704 54.0139 148.014 54.0139C145.092 54.0139 141.616 51.4193 141.616 46.9992C141.616 42.5791 144.889 40.0491 148.05 39.9552L148.044 39.961ZM148.246 42.7199C146.205 42.7199 144.55 44.6571 144.55 47.0462C144.55 49.4353 146.205 51.3724 148.246 51.3724C150.288 51.3724 151.942 49.4353 151.942 47.0462C151.942 44.6571 150.288 42.7199 148.246 42.7199ZM133.539 39.961C137.3 39.961 140.354 43.1132 140.354 46.9992C140.354 50.8852 137.3 54.0374 133.539 54.0374C129.777 54.0374 126.724 50.8852 126.724 46.9992C126.724 43.1132 129.777 39.961 133.539 39.961V39.961ZM133.491 42.7199C131.378 42.7199 129.664 44.6336 129.664 46.9992C129.664 49.3648 131.378 51.2785 133.491 51.2785C135.604 51.2785 137.318 49.3648 137.318 46.9992C137.318 44.6336 135.604 42.7199 133.491 42.7199ZM118.796 39.961C122.557 39.961 125.611 43.1132 125.611 46.9992C125.611 50.8852 122.557 54.0374 118.796 54.0374C115.034 54.0374 111.98 50.8852 111.98 46.9992C111.98 43.1132 115.034 39.961 118.796 39.961V39.961ZM118.754 42.7199C116.641 42.7199 114.921 44.6336 114.921 46.9992C114.921 49.3648 116.635 51.2785 118.754 51.2785C120.873 51.2785 122.581 49.3648 122.581 46.9992C122.581 44.6336 120.867 42.7199 118.754 42.7199Z" fill="#0A0A1C"/>
<path fill-rule="evenodd" clip-rule="evenodd" d="M101 42.1H109.852L109.764 45.3189H101.006V42.1H101Z" fill="#0A0A1C"/>
<path fill-rule="evenodd" clip-rule="evenodd" d="M101.386 32.1885C104.368 32.1885 106.873 33.2825 108.592 35.1896L106.576 37.3074C105.318 35.956 103.535 35.213 101.473 35.213C97.36 35.213 94.0219 38.7231 94.0219 43.0522C94.0219 47.3812 97.36 50.8913 101.473 50.8913C105.586 50.8913 108.51 48.3875 108.505 43.0522C108.51 42.7246 108.505 42.4028 108.481 42.0869H111.05V42.1981C112 49.5224 107.369 53.8047 101.718 53.9158H101.386C95.6822 53.91 91.0566 49.0544 91.0566 43.0522C91.0566 37.05 95.6822 32.1885 101.386 32.1885Z" fill="#0A0A1C"/>
<path d="M77.3716 34.0953C79.5236 35.2639 79.5236 37.1583 77.3716 38.3269L45.0672 55.8493C42.9093 57.0179 41.1641 55.9851 41.1641 53.5181V18.91C41.1641 16.4489 42.9152 15.4043 45.0672 16.5729L77.3716 34.0953Z" stroke="#0A0A1C" stroke-width="2.18077"/>
<path d="M41.9688 20.9225L66.9149 44.2592" stroke="#0A0A1C" stroke-width="2.18077"/>
<path d="M66.9149 28.165L41.1641 51.5017" stroke="#0A0A1C" stroke-width="2.18077"/>
</svg>
